<?xml version="1.0" standalone="no"?>
<!DOCTYPE svg PUBLIC "-//W3C//DTD SVG 20010904//EN"
 "http://www.w3.org/TR/2001/REC-SVG-20010904/DTD/svg10.dtd">
<svg version="1.0" xmlns="http://www.w3.org/2000/svg"
 width="1890.000000pt" height="1417.000000pt" viewBox="0 0 1890.000000 1417.000000"
 preserveAspectRatio="xMidYMid meet">

<g transform="translate(0.000000,1417.000000) scale(0.100000,-0.100000)"
fill="#00ff88" stroke="none">
<path d="M8995 14060 c-33 -4 -91 -8 -130 -9 -38 0 -104 -5 -145 -11 -41 -5
-131 -17 -200 -25 -69 -9 -147 -20 -175 -25 -27 -5 -77 -14 -110 -20 -54 -9
-208 -40 -310 -61 -22 -4 -85 -20 -140 -34 -55 -15 -116 -30 -135 -35 -69 -17
-106 -27 -180 -50 -149 -45 -374 -121 -445 -150 -365 -146 -390 -157 -625
-273 -150 -74 -385 -202 -494 -270 -276 -171 -449 -289 -641 -437 -18 -14 -50
-38 -71 -55 -410 -316 -895 -806 -1211 -1221 -138 -182 -383 -533 -383 -550 0
-2 -20 -35 -45 -74 -109 -170 -326 -579 -427 -805 -127 -286 -306 -787 -358
-1005 -4 -19 -22 -89 -38 -155 -31 -119 -37 -146 -65 -280 -93 -434 -147 -953
-147 -1395 0 -350 33 -793 82 -1095 10 -66 21 -136 24 -155 6 -46 19 -113 45
-235 12 -55 25 -118 30 -140 14 -72 21 -99 45 -190 31 -115 44 -164 54 -195 5
-14 16 -52 25 -85 9 -33 20 -69 25 -80 4 -11 19 -58 34 -105 15 -47 31 -94 36
-105 5 -11 19 -49 31 -85 29 -87 100 -264 161 -400 14 -30 33 -75 44 -100 61
-145 258 -517 401 -755 40 -68 47 -78 90 -142 24 -35 43 -65 43 -68 0 -11 256
-363 349 -480 428 -540 942 -1021 1502 -1406 199 -137 161 -113 403 -258 158
-95 405 -225 687 -361 8 -4 100 -42 205 -85 104 -42 198 -80 209 -85 25 -12
365 -123 425 -140 25 -7 56 -16 70 -21 27 -9 164 -46 220 -59 19 -5 64 -16
100 -25 90 -23 117 -28 340 -70 763 -144 1667 -144 2430 0 223 42 250 47 340
70 36 9 81 20 100 25 81 19 240 63 344 96 61 19 125 39 141 43 31 9 195 66
230 80 11 5 40 16 65 26 25 10 54 21 65 25 11 4 46 20 78 34 32 14 63 26 70
26 7 0 17 4 23 8 5 5 25 15 44 22 127 49 565 269 642 322 14 10 29 18 33 18 3
0 31 16 61 35 30 19 56 35 59 35 7 0 197 122 335 215 188 127 478 349 600 459
25 23 75 66 110 96 85 72 456 442 552 550 105 118 226 265 343 414 117 149
421 599 458 676 4 8 18 33 32 55 14 22 34 56 44 75 11 19 38 69 61 110 96 175
254 510 333 705 107 266 142 364 202 560 15 50 30 101 35 115 16 51 74 266 84
315 4 17 11 46 15 65 12 50 49 225 61 288 24 128 30 163 44 252 28 181 50 383
66 615 22 294 10 929 -20 1121 -6 34 -10 81 -10 106 0 25 -4 69 -9 99 -6 30
-17 106 -26 169 -9 63 -20 133 -25 155 -5 22 -14 74 -21 115 -6 41 -22 120
-35 175 -12 55 -25 111 -27 125 -3 14 -17 70 -32 125 -15 55 -31 116 -35 135
-42 176 -156 510 -265 780 -47 116 -89 218 -95 227 -5 10 -24 50 -41 88 -55
126 -188 385 -276 539 -402 702 -929 1342 -1523 1846 -47 40 -96 82 -110 94
-14 12 -76 61 -138 110 -127 99 -116 98 -175 14 -18 -26 -69 -98 -114 -161
-46 -63 -83 -119 -83 -125 0 -6 15 -21 33 -33 17 -13 34 -26 37 -29 3 -3 23
-19 45 -36 202 -149 683 -601 855 -803 30 -36 73 -85 95 -111 178 -208 478
-619 559 -765 9 -16 41 -70 71 -119 30 -49 55 -90 55 -92 0 -1 25 -46 55 -100
53 -93 245 -476 245 -488 0 -3 14 -36 31 -73 17 -38 49 -113 70 -168 22 -55
44 -109 49 -120 18 -40 130 -374 158 -470 18 -62 63 -226 73 -267 5 -21 13
-55 19 -75 18 -73 49 -221 69 -333 5 -30 15 -80 20 -110 31 -158 63 -447 81
-735 26 -412 -1 -969 -65 -1360 -47 -287 -50 -303 -90 -470 -9 -38 -20 -88
-25 -110 -9 -46 -47 -188 -59 -225 -5 -14 -15 -45 -22 -70 -45 -157 -156 -475
-209 -597 -6 -13 -14 -33 -19 -45 -5 -13 -21 -49 -35 -81 -14 -32 -26 -60 -26
-62 0 -8 -78 -173 -142 -300 -61 -122 -97 -189 -149 -277 -16 -27 -29 -50 -29
-52 0 -2 -36 -64 -81 -137 -265 -437 -582 -840 -954 -1214 -110 -111 -156
-154 -300 -285 -108 -97 -328 -275 -451 -365 -140 -101 -245 -175 -249 -175
-2 0 -33 -20 -68 -45 -36 -25 -68 -45 -72 -45 -3 0 -21 -11 -39 -25 -18 -14
-35 -25 -38 -25 -3 0 -46 -24 -95 -54 -109 -66 -183 -106 -368 -200 -126 -64
-176 -88 -312 -147 -24 -11 -63 -28 -88 -39 -25 -11 -75 -32 -112 -46 -133
-51 -148 -56 -168 -65 -30 -13 -310 -104 -395 -128 -41 -12 -88 -26 -105 -31
-30 -8 -127 -33 -195 -50 -19 -4 -60 -13 -90 -20 -30 -6 -82 -17 -115 -25
-140 -32 -410 -74 -610 -94 -274 -28 -404 -33 -750 -28 -462 7 -577 17 -1020
87 -74 12 -129 23 -220 44 -38 9 -90 21 -115 25 -53 11 -246 61 -345 91 -16 5
-52 16 -80 24 -63 18 -246 79 -305 101 -53 20 -117 44 -145 55 -11 5 -39 15
-62 24 -23 8 -64 25 -90 37 -26 12 -61 27 -78 34 -177 77 -483 230 -580 291
-11 6 -36 21 -55 31 -122 66 -381 233 -562 362 -376 270 -773 635 -1112 1021
-209 238 -513 656 -654 901 -11 19 -52 90 -91 158 -82 141 -331 643 -331 666
0 3 -8 24 -19 48 -10 23 -31 74 -46 112 -15 39 -31 79 -35 90 -27 66 -132 372
-151 443 -5 17 -13 47 -18 65 -38 130 -66 245 -100 402 -12 55 -26 118 -31
140 -5 22 -13 67 -19 100 -5 33 -15 87 -21 120 -44 254 -65 493 -80 900 -10
291 -8 400 11 660 29 408 105 858 203 1205 9 30 22 80 30 110 8 30 31 107 51
170 20 63 41 126 45 140 10 33 49 140 60 165 5 11 18 47 30 80 12 33 28 76 37
95 8 19 19 44 23 55 4 11 20 46 34 78 14 32 26 60 26 62 0 10 66 150 141 300
93 184 153 295 203 374 15 22 26 43 26 45 0 20 302 467 404 599 34 44 70 91
81 106 185 253 655 733 990 1009 209 174 541 407 783 551 93 55 139 81 265
150 116 64 335 170 442 216 61 25 119 50 130 54 166 71 487 186 620 222 17 4
73 20 125 34 52 15 111 31 130 35 19 5 64 16 100 25 70 17 126 30 205 44 28 6
88 17 135 26 552 104 1298 126 1870 55 186 -23 472 -71 595 -99 57 -13 174
-41 215 -51 19 -5 55 -14 80 -19 25 -5 74 -19 110 -31 36 -11 83 -25 105 -31
63 -18 128 -40 147 -50 10 -5 25 -9 33 -9 8 0 23 -4 33 -9 9 -5 52 -21 94 -36
42 -14 116 -41 165 -60 48 -19 93 -35 98 -35 6 0 35 60 64 133 29 72 56 142
62 155 5 12 14 34 20 50 6 15 16 35 21 45 7 14 5 22 -9 33 -10 7 -22 13 -28
14 -5 0 -39 12 -75 26 -36 15 -74 30 -85 34 -112 45 -411 142 -585 190 -98 27
-219 58 -250 65 -19 4 -51 11 -70 15 -114 26 -230 48 -365 70 -27 4 -95 15
-150 24 -101 17 -203 28 -415 47 -143 13 -903 20 -985 9z"/>
<path d="M12436 13114 c-54 -107 -96 -197 -94 -199 1 -1 53 -29 113 -60 61
-32 134 -73 163 -92 29 -18 55 -33 58 -33 3 0 19 -9 35 -21 35 -25 49 -21 69
17 8 16 34 59 57 97 24 37 43 69 43 72 0 3 21 37 46 76 25 40 48 78 51 85 4
10 -94 84 -112 84 -2 0 -26 13 -53 29 -46 27 -69 40 -194 109 -31 18 -63 32
-71 32 -7 0 -55 -84 -111 -196z"/>
<path d="M7950 12199 c-164 -24 -281 -83 -394 -198 -92 -92 -155 -206 -185
-334 -8 -33 -11 -372 -11 -1162 0 -1094 0 -1115 -20 -1167 -11 -29 -28 -62
-38 -73 -24 -29 -82 -71 -112 -81 -14 -5 -531 -11 -1150 -14 -997 -6 -1131 -8
-1177 -22 -190 -59 -339 -183 -420 -348 -89 -183 -83 -62 -83 -1715 0 -1559
-1 -1520 51 -1661 55 -149 189 -295 333 -364 155 -74 82 -70 1305 -70 1227 0
1152 4 1229 -72 25 -24 50 -63 62 -95 20 -53 20 -74 20 -1172 0 -618 4 -1131
9 -1147 5 -16 15 -49 22 -74 56 -195 230 -376 424 -440 122 -40 112 -40 1599
-40 1025 0 1447 3 1490 11 265 50 452 214 547 479 l24 65 5 1150 c5 1091 6
1152 24 1192 22 51 72 98 133 124 43 18 86 19 1146 19 1144 1 1136 0 1247 41
130 47 265 159 342 284 30 49 72 154 87 218 16 68 16 3017 0 3084 -54 224
-180 389 -364 477 -156 76 -54 70 -1300 76 l-1130 5 -45 22 c-53 25 -89 62
-116 118 -18 38 -19 85 -25 1185 -6 1277 0 1177 -78 1335 -66 134 -197 259
-330 314 -139 58 -28 55 -1611 57 -800 1 -1480 -2 -1510 -7z m2958 -474 c53
-29 99 -82 118 -135 4 -14 11 -540 14 -1170 7 -1189 5 -1150 44 -1255 54 -145
181 -291 316 -359 159 -81 63 -76 1290 -76 1179 0 1164 0 1235 -52 32 -23 60
-56 85 -98 13 -22 15 -205 18 -1455 2 -786 0 -1454 -3 -1482 -9 -73 -56 -140
-125 -175 l-52 -28 -1077 0 c-657 0 -1101 -4 -1141 -10 -89 -14 -132 -28 -224
-73 -146 -73 -265 -209 -326 -372 -4 -11 -13 -36 -21 -55 -11 -29 -15 -239
-19 -1190 -4 -840 -8 -1162 -17 -1180 -25 -54 -72 -106 -118 -130 l-49 -25
-1440 0 c-1342 0 -1443 1 -1472 17 -52 29 -94 68 -117 112 l-22 41 -5 1140
c-5 1125 -6 1141 -27 1213 -44 153 -139 293 -255 375 -61 44 -148 88 -198 102
-14 4 -43 11 -65 18 -27 7 -395 12 -1165 16 l-1125 6 -41 27 c-48 31 -80 68
-100 117 -21 51 -21 2932 0 2983 18 42 71 99 111 121 68 36 108 37 1213 37
l1089 0 75 24 c263 86 434 286 477 556 7 42 11 451 11 1150 0 716 4 1098 10
1122 14 49 66 117 110 142 19 11 55 24 80 27 25 4 677 6 1450 5 l1405 -1 53
-30z"/>
<path d="M9320 11251 c-54 -29 -1005 -1000 -1024 -1046 -23 -55 -21 -146 5
-192 29 -53 38 -62 84 -91 33 -21 52 -25 110 -26 47 0 81 6 101 17 30 15 795
777 802 798 2 5 10 9 17 9 7 0 188 -177 401 -393 214 -216 402 -401 419 -412
23 -14 48 -19 106 -19 68 0 80 3 116 29 23 16 51 44 63 62 43 63 49 167 13
238 -9 16 -152 167 -318 335 -167 168 -379 383 -471 478 -208 213 -234 232
-323 232 -44 -1 -78 -7 -101 -19z"/>
<path d="M9215 8694 c-11 -3 -47 -9 -80 -15 -328 -61 -603 -206 -840 -444
-133 -133 -224 -260 -304 -420 -81 -163 -130 -315 -160 -496 -20 -119 -12
-472 11 -494 2 -2 42 3 88 11 47 9 112 19 145 24 33 5 87 14 120 19 33 6 62
11 65 11 3 0 5 82 5 183 0 118 5 199 13 232 7 28 18 68 23 90 31 127 133 323
224 430 213 252 469 390 791 425 143 16 273 2 439 -47 309 -90 598 -354 728
-663 75 -179 110 -405 88 -577 -15 -124 -27 -180 -59 -268 -80 -225 -227 -426
-417 -567 -115 -85 -232 -139 -430 -198 -22 -7 -119 -14 -215 -17 -156 -4
-185 -2 -265 17 -49 12 -106 24 -125 27 -35 4 -35 4 -53 -49 -10 -29 -27 -75
-37 -103 -10 -27 -30 -84 -45 -125 -15 -41 -32 -85 -38 -98 -6 -14 -7 -26 -1
-31 19 -17 181 -59 319 -82 79 -13 395 -6 485 10 130 23 267 64 356 106 29 14
63 29 76 35 99 41 310 193 418 302 74 73 198 228 237 295 10 17 29 51 43 75
14 23 38 72 53 108 16 36 32 74 37 85 26 58 63 194 91 335 17 85 17 421 0 515
-41 226 -107 407 -218 597 -86 147 -267 347 -408 452 -162 121 -390 232 -550
268 -182 41 -234 47 -410 46 -99 0 -189 -2 -200 -4z"/>
<path d="M6309 8201 c-24 -15 -120 -107 -214 -202 -93 -96 -307 -313 -476
-484 -280 -284 -308 -315 -324 -364 -21 -64 -16 -116 17 -176 14 -27 212 -236
505 -532 436 -441 487 -491 533 -507 127 -46 258 26 290 158 11 45 11 63 0
103 -7 26 -18 55 -24 64 -23 35 -140 156 -457 474 -181 182 -329 336 -329 343
0 7 169 184 376 392 207 209 386 394 398 412 26 39 46 96 46 128 0 73 -46 155
-111 195 -32 21 -51 25 -112 25 -63 0 -79 -4 -118 -29z"/>
<path d="M12294 8203 c-23 -15 -51 -41 -63 -59 -50 -73 -51 -189 -3 -255 15
-20 197 -209 405 -419 207 -211 376 -387 375 -392 -2 -5 -172 -180 -378 -390
-206 -210 -388 -399 -404 -421 -27 -37 -30 -47 -30 -122 0 -74 3 -85 30 -122
72 -101 197 -131 296 -70 54 33 985 983 1008 1028 27 52 27 146 0 200 -12 23
-171 192 -379 402 -197 199 -410 414 -472 478 -154 158 -172 169 -268 169 -65
0 -82 -4 -117 -27z"/>
<path d="M8358 6455 c-20 -14 -39 -25 -42 -25 -2 0 -50 -27 -106 -60 -56 -33
-105 -60 -109 -60 -4 0 -21 -12 -39 -27 l-32 -28 82 -115 c45 -63 117 -151
160 -195 l78 -80 27 32 c16 17 81 92 146 167 l119 136 -70 78 c-69 77 -142
176 -142 193 0 17 -35 9 -72 -16z"/>
<path d="M8420 4258 c-43 -15 -105 -76 -125 -124 -23 -55 -20 -145 8 -193 29
-52 949 -986 1006 -1023 36 -22 56 -28 103 -28 91 0 128 23 283 183 77 78 293
297 481 487 188 190 350 361 360 380 25 48 25 162 0 209 -57 108 -186 150
-297 97 -20 -9 -197 -181 -423 -411 -213 -217 -391 -395 -395 -395 -5 0 -688
679 -768 765 -50 52 -159 77 -233 53z"/>
</g>
</svg>
